<svg width="62" height="62" fill="none" xmlns="http://www.w3.org/2000/svg">
  <path fill-rule="evenodd" clip-rule="evenodd" d="M38.971 1.771c0-.978.794-1.771 1.772-1.771h12.99A8.267 8.267 0 0 1 62 8.267v45.466A8.267 8.267 0 0 1 53.733 62h-12.99a1.771 1.771 0 1 1 0-3.543h12.99a4.724 4.724 0 0 0 4.724-4.724V8.267a4.724 4.724 0 0 0-4.724-4.724h-12.99A1.771 1.771 0 0 1 38.97 1.77Z" fill="#FF606D"/>
  <path fill-rule="evenodd" clip-rule="evenodd" d="M23.254 13.51a1.771 1.771 0 0 1 2.505 0l16.238 16.237a1.771 1.771 0 0 1 0 2.506L25.759 48.49a1.771 1.771 0 1 1-2.505-2.505L38.239 31 23.254 16.015a1.771 1.771 0 0 1 0-2.506Z" fill="#FF606D"/>
  <path fill-rule="evenodd" clip-rule="evenodd" d="M0 31c0-.978.793-1.771 1.771-1.771h38.972a1.771 1.771 0 0 1 0 3.542H1.77A1.771 1.771 0 0 1 0 31Z" fill="#FF606D"/>
</svg>
