<svg width="45" height="62" fill="none" xmlns="http://www.w3.org/2000/svg">
  <rect x="15.757" y="7.351" width="13.95" height="3.72" rx="1.86" fill="#FF606D"/>
  <path fill-rule="evenodd" clip-rule="evenodd" d="M8.117 3.543a4.074 4.074 0 0 0-4.074 4.074v46.766a4.074 4.074 0 0 0 4.074 4.074h29.229a4.074 4.074 0 0 0 4.074-4.074V7.617a4.074 4.074 0 0 0-4.074-4.074H8.117ZM.5 7.617A7.617 7.617 0 0 1 8.117 0h29.229a7.617 7.617 0 0 1 7.617 7.617v46.766A7.617 7.617 0 0 1 37.346 62H8.117A7.617 7.617 0 0 1 .5 54.383V7.617Z" fill="#FF606D"/>
</svg>
