<svg width="63" height="62" fill="none" xmlns="http://www.w3.org/2000/svg">
  <path fill-rule="evenodd" clip-rule="evenodd" d="M42.675 5.92a27.457 27.457 0 1 0 16.282 25.097v-2.689a1.771 1.771 0 0 1 3.543 0v2.69A31 31 0 1 1 44.117 2.684a1.771 1.771 0 0 1-1.442 3.236Z" fill="#FF606D"/>
  <path fill-rule="evenodd" clip-rule="evenodd" d="M61.98 6.38c.693.692.693 1.814.002 2.506L32.753 38.144a1.771 1.771 0 0 1-2.506 0l-8.768-8.768a1.771 1.771 0 1 1 2.505-2.506l7.515 7.516L59.475 6.382a1.771 1.771 0 0 1 2.506-.001Z" fill="#FF606D"/>
</svg>
